Patient4_TMGait_0pt7_02_left_15_GRF.mot
version=1
nRows=45
nColumns=19
inDegrees=no
endheader
time	F1x	F1y	F1z	M1x	M1y	M1z	F2x	F2y	F2z	M2x	M2y	M2z	EC1x	EC1y	EC1z	EC2x	EC2y	EC2z
16.84	-2.1689	15.9999	-2.3113	-5.7595	4.1686	22.2702	-31.5247	709.8369	-73.0457	255.6241	84.3124	745.4195	-0.0592	0.0182	-0.0073	-0.0462	0.0165	0.9585
16.8519	-1.619	11.6672	-1.3584	-4.2227	2.6481	16.0848	-28.0038	713.7691	-69.7271	256.0402	80.7245	745.6716	-0.0592	0.0182	-0.0073	-0.0462	0.0165	0.9585
16.8639	-1.1235	8.0593	-0.63714	-2.9269	1.4165	10.8952	-24.6467	718.4105	-66.4704	256.9127	76.9671	745.9699	-0.0592	0.0182	-0.0073	-0.0462	0.0165	0.9585
16.8758	-0.703	5.3531	-0.11289	-1.9492	0.49056	6.9647	-21.5082	723.7151	-63.4975	258.2998	73.2332	746.3646	-0.0592	0.0182	-0.0073	-0.0462	0.0165	0.9585
16.8877	-0.41008	3.5245	0.21582	-1.2898	-0.13394	4.2837	-18.5424	729.4982	-60.9169	260.1488	69.6404	746.7748	-0.0592	0.0182	-0.0073	-0.0462	0.0165	0.9585
16.8996	-0.21879	2.4165	0.41939	-0.89651	-0.5354	2.6355	-15.6378	735.3567	-58.749	262.2915	66.2351	746.8751	-0.0592	0.0182	-0.0073	-0.0462	0.0165	0.9585
16.9116	-0.14593	1.8484	0.52324	-0.70227	-0.77104	1.7735	-12.7006	740.778	-56.9537	264.4972	63.0176	746.2446	-0.0592	0.0182	-0.0073	-0.0462	0.0165	0.9585
16.9235	-0.15734	1.6026	0.57692	-0.62523	-0.91412	1.3761	-9.6279	745.2526	-55.4835	266.5219	59.9774	744.455	-0.0592	0.0182	-0.0073	-0.0462	0.0165	0.9585
16.9354	-0.25901	1.4874	0.60985	-0.58941	-1.0208	1.1958	-6.3634	748.3483	-54.2883	268.144	57.1007	741.1639	-0.0592	0.0182	-0.0073	-0.0462	0.0165	0.9585
16.9474	-0.40412	1.2972	0.64567	-0.51903	-1.1239	0.95756	-2.8618	749.7724	-53.3688	269.1936	54.4018	736.1551	-0.0592	0.0182	-0.0073	-0.0462	0.0165	0.9585
16.9593	-0.60005	0.86941	0.71435	-0.35132	-1.2659	0.46725	0.8941	749.4677	-52.7659	269.5919	51.9194	729.4356	-0.0592	0.0182	-0.0073	-0.0462	0.0165	0.9585
16.9712	-0.80038	0.052294	0.81085	-0.031239	-1.4396	-0.47098	4.899	747.5854	-52.531	269.3544	49.7	721.2077	-0.0592	0.0182	-0.0073	-0.0462	0.0165	0.9585
16.9831	-0.98998	-1.2416	0.95182	0.47392	-1.6557	-1.9389	9.1301	744.5625	-52.7095	268.6101	47.7849	711.9652	-0.0592	0.0182	-0.0073	-0.0462	0.0165	0.9585
16.9951	-1.1059	-3.0408	1.0986	1.1667	-1.853	-3.9876	13.546	741.037	-53.3026	267.5758	46.1821	702.3776	-0.0592	0.0182	-0.0073	-0.0462	0.0165	0.9585
17.007	-1.0836	-5.2344	1.2245	2.0003	-1.9687	-6.4877	18.0335	737.727	-54.3013	266.5034	44.9144	693.1935	-0.0592	0.0182	-0.0073	-0.0462	0.0165	0.9585
17.0189	-0.79687	-7.5182	1.2406	2.8529	-1.8545	-9.1122	22.4447	735.2956	-55.6645	265.6242	43.9952	685.108	-0.0592	0.0182	-0.0073	-0.0462	0.0165	0.9585
17.0309	-0.13135	-9.2951	1.0586	3.4965	-1.3546	-11.1758	26.5556	734.2166	-57.343	265.1004	43.4597	678.6476	-0.0592	0.0182	-0.0073	-0.0462	0.0165	0.9585
17.0428	1.0857	-9.6076	0.53018	3.5646	-0.2361	-11.5811	30.1247	734.6966	-59.2736	264.9953	43.343	674.0851	-0.0592	0.0182	-0.0073	-0.0462	0.0165	0.9585
17.0547	2.9892	-7.0811	-0.49517	2.5343	1.7327	-8.7065	32.9353	736.608	-61.3971	265.2517	43.6754	671.3725	-0.0592	0.0182	-0.0073	-0.0462	0.0165	0.9585
17.0666	5.6816	0.084148	-2.1849	-0.27793	4.785	-0.43623	34.8845	739.4788	-63.629	265.6955	44.4268	670.1205	-0.0592	0.0182	-0.0073	-0.0462	0.0165	0.9585
17.0786	9.1437	14.0206	-4.657	-5.6762	9.0469	15.7503	36.0101	742.5329	-65.8602	266.0526	45.4966	669.6295	-0.0592	0.0182	-0.0073	-0.0462	0.0165	0.9585
17.0905	13.1367	36.8934	-7.9386	-14.4724	14.4476	42.4242	36.5083	744.7338	-67.9297	265.9769	46.679	668.8987	-0.0592	0.0182	-0.0073	-0.0462	0.0165	0.9585
17.1024	17.0625	70.3808	-11.8638	-27.2802	20.5498	81.6096	36.646	744.8575	-69.5989	265.0775	47.6723	666.7302	-0.0592	0.0182	-0.0073	-0.0462	0.0165	0.9585
17.1144	19.8264	114.8111	-15.9576	-44.1829	26.3617	133.7663	36.7165	741.4921	-70.5809	262.9173	48.1268	661.7342	-0.0592	0.0182	-0.0073	-0.0462	0.0165	0.9585
17.1263	19.7206	167.9786	-19.2815	-64.2844	30.115	196.3938	36.9287	733.1277	-70.5485	259.034	47.6845	652.4503	-0.0592	0.0182	-0.0073	-0.0462	0.0165	0.9585
17.1382	15.083	224.496	-20.4023	-85.4671	29.5382	263.2955	37.3727	718.2747	-69.2212	252.9707	46.0764	637.4763	-0.0592	0.0182	-0.0073	-0.0462	0.0165	0.9585
17.1501	6.7404	277.2877	-17.9134	-104.9816	23.3157	326.1598	37.9983	695.7186	-66.433	244.351	43.1921	615.7199	-0.0592	0.0182	-0.0073	-0.0462	0.0165	0.9585
17.1621	-2.4319	319.9069	-11.4978	-120.4189	12.197	377.0303	38.663	664.7415	-62.2336	232.9487	39.1425	586.574	-0.0592	0.0182	-0.0073	-0.0462	0.0165	0.9585
17.174	-10.0745	349.21	-2.3584	-130.6778	-1.4893	411.8129	39.1547	625.3197	-56.8929	218.752	34.2396	550.0902	-0.0592	0.0182	-0.0073	-0.0462	0.0165	0.9585
17.1859	-15.5026	366.8692	7.9523	-136.484	-15.6011	432.3028	39.2817	578.2509	-50.829	202.0162	28.9088	507.0545	-0.0592	0.0182	-0.0073	-0.0462	0.0165	0.9585
17.1979	-18.9866	378.302	17.8783	-139.9538	-28.4534	444.8672	38.8478	525.1149	-44.4892	183.261	23.5906	458.9501	-0.0592	0.0182	-0.0073	-0.0462	0.0165	0.9585
17.2098	-21.3928	389.2095	26.1536	-143.3331	-38.8989	456.3441	37.7217	467.9829	-38.2343	163.1822	18.6342	407.6732	-0.0592	0.0182	-0.0073	-0.0462	0.0165	0.9585
17.2217	-23.3401	403.9658	31.9377	-148.3255	-46.225	471.7997	35.8192	409.0917	-32.2395	142.5428	14.2164	355.2337	-0.0592	0.0182	-0.0073	-0.0462	0.0165	0.9585
17.2336	-25.0363	424.8103	35.1186	-155.7898	-50.3914	493.82	33.0883	350.5253	-26.555	122.0648	10.3978	303.4745	-0.0592	0.0182	-0.0073	-0.0462	0.0165	0.9585
17.2456	-26.3802	452.3636	36.1869	-165.9205	-51.9377	522.9946	29.5711	294.1898	-21.1998	102.4035	7.1809	254.0573	-0.0592	0.0182	-0.0073	-0.0462	0.0165	0.9585
17.2575	-27.2414	486.0627	36.1313	-178.4048	-51.9451	558.6042	25.4051	241.6553	-16.2583	84.0982	4.5765	208.2942	-0.0592	0.0182	-0.0073	-0.0462	0.0165	0.9585
17.2694	-27.6759	523.9657	36.13	-192.4257	-51.7747	598.4673	20.8585	194.1179	-11.854	67.556	2.5759	167.13	-0.0592	0.0182	-0.0073	-0.0462	0.0165	0.9585
17.2814	-28.0875	563.7661	37.1989	-207.0302	-52.6981	640.0115	16.2932	152.3732	-8.1312	53.0403	1.1568	131.1464	-0.0592	0.0182	-0.0073	-0.0462	0.0165	0.9585
17.2933	-28.7332	603.7055	39.6416	-221.5189	-55.1649	681.2848	12.0313	116.6802	-5.1606	40.6371	0.24645	100.4655	-0.0592	0.0182	-0.0073	-0.0462	0.0165	0.9585
17.3052	-29.7162	642.9019	43.1246	-235.5536	-58.8671	721.3607	8.3205	86.9148	-2.9383	30.2968	-0.2556	74.9211	-0.0592	0.0182	-0.0073	-0.0462	0.0165	0.9585
17.3171	-31.0385	680.7535	47.1327	-248.9174	-63.245	759.5776	5.2719	62.6098	-1.4121	21.8547	-0.43233	54.0673	-0.0592	0.0182	-0.0073	-0.0462	0.0165	0.9585
17.3291	-32.6269	716.361	51.2404	-261.2875	-67.8045	795.0264	2.8806	43.1207	-0.43357	15.089	-0.4074	37.3428	-0.0592	0.0182	-0.0073	-0.0462	0.0165	0.9585
17.341	-34.312	748.5582	55.2805	-272.2226	-72.3008	826.4917	1.1233	27.8588	0.11773	9.7919	-0.26433	24.2508	-0.0592	0.0182	-0.0073	-0.0462	0.0165	0.9585
17.3529	-35.9709	775.9718	59.2323	-281.2142	-76.6546	852.5389	-0.08885	16.3243	0.3683	5.7877	-0.07152	14.3821	-0.0592	0.0182	-0.0073	-0.0462	0.0165	0.9585
17.3649	-37.3584	797.4381	63.0664	-287.8477	-80.747	871.9488	-0.79503	8.1109	0.41211	2.9332	0.11544	7.3745	-0.0592	0.0182	-0.0073	-0.0462	0.0165	0.9585
